<svg xmlns="http://www.w3.org/2000/svg" width="256" height="256" viewBox="0 0 256 256">
  <rect width="256" height="256" rx="56" fill="#7A8B6F"/>
  <path transform="translate(74.09 189.24) scale(0.17251 -0.17251)" d="M309 -16Q186 -16 119.5 41.0Q53 98 48 191L159 197Q165 136 205.5 109.5Q246 83 309 83Q351 83 386.5 94.5Q422 106 443.5 132.5Q465 159 465 202Q465 266 422.0 296.5Q379 327 308 327H249V421H308Q365 421 403.0 444.0Q441 467 441 524Q441 574 409.0 600.5Q377 627 311 627Q247 627 214.0 602.0Q181 577 175 534L64 540Q74 624 137.5 675.0Q201 726 311 726Q387 726 441.0 702.5Q495 679 524.0 635.0Q553 591 553 532Q553 467 511.5 426.0Q470 385 390 370V388Q477 377 527.0 326.5Q577 276 577 198Q577 131 543.0 82.5Q509 34 449.0 9.0Q389 -16 309 -16Z" fill="#F4F1EB"/>
</svg>
